# xmcd
#
# Track frame offsets:
#	150
#	13798
#	27610
#	36650
#	51247
#	83586
#	103136
#	113478
#	128157
#	142720
#	161411
#	183116
#	197889
#	208998
#
# Disc length: 3022 seconds
#
# Revision: 0
# Processed by: cddbd v1.5.2PL0 Copyright (c) Steve Scherf et al.
# Submitted via: audiograbber 1.83.01
#
DISCID=c00bcc0e
DTITLE=All That The Name Implies - All That The Name Implies
DYEAR=1968
DGENRE=Folk
TTITLE0=Lemon Train
TTITLE1=Your Day
TTITLE2=Simply Impried
TTITLE3=So Am I
TTITLE4=Dedication: Fred Neil (River Trilogy) - Noah's Dove/A Man Is/The Water 
TTITLE4=Is Wide
TTITLE5=Red Ball
TTITLE6=Liar
TTITLE7=The Bells Of The Mountain
TTITLE8=Mary Maybe
TTITLE9=August Pine
TTITLE10=Black Tuesday
TTITLE11=So Am I (45 Version)
TTITLE12=Liar (45 Version)
TTITLE13=August Pine (45 Version)
EXTD=
EXTT0=
EXTT1=
EXTT2=
EXTT3=
EXTT4=
EXTT5=
EXTT6=
EXTT7=
EXTT8=
EXTT9=
EXTT10=
EXTT11=
EXTT12=
EXTT13=
PLAYORDER=
